<svg xmlns="http://www.w3.org/2000/svg" viewBox="0 0 477.1 96" role="img" aria-label="Blackjack Lab">
  <!-- Blackjack Lab primary logo. Wordmark outlined from Marcellus
       (SIL OFL 1.1); mark original to this project (see ASSETS.md). -->
  <style>
    .ink { fill: #2b2115; }
    .ink-stroke { stroke: #c9a35c; }
    @media (prefers-color-scheme: dark) {
      .ink { fill: #eee3cd; }
    }
  </style>
  <defs>
    <clipPath id="f-l"><rect x="0" y="0" width="48" height="96"/></clipPath>
    <clipPath id="f-r"><rect x="48" y="0" width="48" height="96"/></clipPath>
  </defs>
  <g clip-path="url(#f-l)">
    <path class="ink" d="M48 6C41 19 22 31 15 46C10 57 15 68 24 71.5C31.5 74.5 39.5 72 43.5 65.5C43.8 73 41 82 33.5 88.5L62.5 88.5C55 82 52.2 73 52.5 65.5C56.5 72 64.5 74.5 72 71.5C81 68 86 57 81 46C74 31 55 19 48 6Z"/>
  </g>
  <g clip-path="url(#f-r)" fill="none" stroke="#c9a35c" stroke-width="2.4">
    <path d="M48 6C41 19 22 31 15 46C10 57 15 68 24 71.5C31.5 74.5 39.5 72 43.5 65.5C43.8 73 41 82 33.5 88.5L62.5 88.5C55 82 52.2 73 52.5 65.5C56.5 72 64.5 74.5 72 71.5C81 68 86 57 81 46C74 31 55 19 48 6Z"/>
  </g>
  <path d="M48 1L48 93" fill="none" stroke="#c9a35c" stroke-width="1.3"/>
  <path class="ink" d="M117.6 41.1Q117.6 39.3 117.6 38.0Q117.5 36.7 117.4 35.7Q117.4 34.7 117.2 34.1Q117.1 33.4 117.0 33.0V32.9Q117.4 32.9 117.9 32.9Q118.3 32.9 118.8 32.9Q119.3 32.9 119.8 32.9Q120.6 32.9 121.8 32.8Q123.1 32.6 125.2 32.6Q127.1 32.6 128.7 33.1Q130.3 33.6 131.4 34.6Q132.6 35.5 133.2 36.8Q133.9 38.2 133.9 39.9Q133.9 41.4 133.5 42.5Q133.1 43.6 132.4 44.5Q131.7 45.3 130.6 45.9Q129.6 46.5 128.4 46.8Q130.2 47.1 131.7 47.7Q133.1 48.4 134.2 49.4Q135.2 50.3 135.8 51.6Q136.4 52.9 136.4 54.5Q136.4 58.9 133.5 61.1Q130.6 63.3 124.8 63.3Q124.1 63.3 123.3 63.3Q122.4 63.2 121.6 63.2Q120.7 63.1 119.9 63.1Q119.0 63.0 118.4 63.0H117.0V62.9Q117.1 62.5 117.2 61.8Q117.4 61.2 117.4 60.2Q117.5 59.2 117.6 57.9Q117.6 56.6 117.6 54.8ZM125.3 48.1Q123.9 48.1 122.9 48.2Q122.0 48.3 121.4 48.4V54.8Q121.4 57.2 121.5 58.8Q121.6 60.4 121.7 61.4Q122.5 61.6 123.3 61.6Q124.1 61.7 124.6 61.7Q128.6 61.7 130.4 60.0Q132.2 58.2 132.2 54.6Q132.2 53.2 131.8 52.0Q131.3 50.8 130.5 49.9Q129.6 49.1 128.3 48.6Q127.0 48.1 125.3 48.1ZM121.4 46.5Q122.0 46.6 122.5 46.6Q122.9 46.6 123.5 46.6Q124.9 46.6 126.1 46.2Q127.2 45.8 128.1 45.0Q128.9 44.2 129.4 42.9Q129.8 41.7 129.8 40.1Q129.8 38.7 129.5 37.6Q129.2 36.5 128.5 35.7Q127.8 34.9 126.9 34.5Q125.9 34.1 124.7 34.1Q123.9 34.1 123.3 34.1Q122.7 34.2 122.3 34.3Q121.8 34.4 121.4 34.5Z M149.4 61.2Q151.9 61.2 154.0 60.9Q156.1 60.7 157.6 60.5Q159.4 60.2 160.9 59.8L160.3 63.2Q160.1 63.1 159.5 63.1Q159.0 63.1 158.4 63.1Q157.8 63.1 157.1 63.1Q156.4 63.0 155.8 63.0Q155.2 63.0 154.7 63.0Q154.3 63.0 154.1 63.0H145.0V62.9Q145.1 62.5 145.2 61.8Q145.4 61.2 145.4 60.2Q145.5 59.2 145.6 57.9Q145.6 56.6 145.6 54.8V41.1Q145.6 39.3 145.6 38.0Q145.5 36.7 145.4 35.7Q145.4 34.7 145.2 34.1Q145.1 33.4 145.0 33.0V32.9H150.0V33.0Q149.9 33.4 149.8 34.1Q149.7 34.7 149.6 35.7Q149.5 36.7 149.5 38.0Q149.4 39.3 149.4 41.1Z M189.5 63.0V62.9Q189.5 62.8 189.5 62.6Q189.6 62.4 189.6 62.2Q189.6 61.6 189.4 60.8Q189.2 60.0 188.7 58.8L186.2 53.1Q185.0 53.1 183.0 53.1Q181.1 53.1 178.8 53.1Q177.1 53.1 175.6 53.1Q174.1 53.1 172.8 53.1L170.4 58.7Q170.1 59.4 169.7 60.4Q169.4 61.3 169.4 62.2Q169.4 62.5 169.4 62.7Q169.5 62.9 169.5 62.9V63.0H165.2V62.9Q165.6 62.5 166.2 61.5Q166.7 60.5 167.4 58.9L179.4 32.3H181.1L192.5 57.9Q192.9 58.8 193.3 59.7Q193.8 60.5 194.2 61.2Q194.5 61.9 194.8 62.3Q195.1 62.8 195.2 62.9V63.0ZM175.9 51.3Q177.1 51.3 178.4 51.3Q179.6 51.2 180.9 51.2Q182.1 51.2 183.2 51.2Q184.4 51.2 185.3 51.2L179.4 37.8L173.6 51.3Z M226.0 37.5 225.8 37.6Q224.2 36.1 221.9 35.2Q219.6 34.3 216.9 34.3Q214.2 34.3 212.0 35.1Q209.8 35.9 208.2 37.5Q206.6 39.1 205.8 41.4Q204.9 43.7 204.9 46.6Q204.9 49.8 205.7 52.6Q206.5 55.4 208.2 57.4Q209.9 59.4 212.4 60.6Q214.8 61.8 218.2 61.8Q219.4 61.8 220.6 61.5Q221.8 61.3 222.9 60.8Q224.0 60.3 224.9 59.6Q225.9 58.9 226.7 58.0L226.9 58.1L225.3 62.4Q223.7 63.0 221.8 63.3Q219.9 63.7 218.0 63.7Q214.1 63.7 210.8 62.5Q207.6 61.4 205.3 59.3Q203.0 57.3 201.7 54.4Q200.4 51.5 200.4 48.0Q200.4 46.0 200.9 44.1Q201.4 42.1 202.4 40.4Q203.4 38.6 204.8 37.2Q206.3 35.7 208.2 34.7Q210.0 33.6 212.3 33.0Q214.5 32.4 217.1 32.4Q221.1 32.4 224.6 33.6Z M234.6 62.9Q234.8 62.5 234.9 61.8Q235.0 61.2 235.1 60.2Q235.2 59.2 235.2 57.9Q235.3 56.6 235.3 54.8V41.1Q235.3 39.3 235.2 38.0Q235.2 36.7 235.1 35.7Q235.0 34.7 234.9 34.1Q234.8 33.4 234.6 33.0V32.9H239.7V33.0Q239.6 33.4 239.4 34.1Q239.3 34.7 239.3 35.7Q239.2 36.7 239.1 38.0Q239.1 39.3 239.1 41.1V45.8L251.3 35.8Q253.4 34.1 253.4 32.9H259.3V33.0Q258.1 33.3 256.8 34.1Q255.5 34.9 254.1 36.1L243.3 45.2L256.3 59.5Q257.1 60.4 257.7 60.9Q258.3 61.5 258.7 61.8Q259.2 62.2 259.5 62.4Q259.9 62.7 260.3 62.9V63.0H254.1Q254.0 62.8 253.9 62.5Q253.7 62.2 253.4 61.9Q253.1 61.6 252.8 61.3Q252.5 60.9 252.2 60.6L239.1 46.2V54.8Q239.1 56.6 239.1 57.9Q239.2 59.2 239.3 60.2Q239.3 61.2 239.4 61.8Q239.6 62.5 239.7 62.9V63.0H234.6Z M270.6 58.7Q270.6 61.5 270.0 63.6Q269.4 65.6 268.4 67.3Q267.3 68.9 265.9 70.1Q264.5 71.4 262.8 72.6L262.4 72.1Q263.9 70.7 264.7 69.3Q265.6 67.9 266.0 66.3Q266.5 64.6 266.6 62.8Q266.7 60.9 266.7 58.7V41.1Q266.7 39.3 266.7 38.0Q266.7 36.7 266.6 35.7Q266.5 34.7 266.4 34.1Q266.3 33.4 266.1 33.0V32.9H271.2V33.0Q271.0 33.4 270.9 34.1Q270.8 34.7 270.7 35.7Q270.6 36.7 270.6 38.0Q270.6 39.3 270.6 41.1Z M301.7 63.0V62.9Q301.7 62.8 301.8 62.6Q301.8 62.4 301.8 62.2Q301.8 61.6 301.6 60.8Q301.4 60.0 300.9 58.8L298.4 53.1Q297.2 53.1 295.3 53.1Q293.3 53.1 291.0 53.1Q289.4 53.1 287.8 53.1Q286.3 53.1 285.1 53.1L282.6 58.7Q282.3 59.4 282.0 60.4Q281.6 61.3 281.6 62.2Q281.6 62.5 281.7 62.7Q281.7 62.9 281.7 62.9V63.0H277.5V62.9Q277.8 62.5 278.4 61.5Q279.0 60.5 279.6 58.9L291.7 32.3H293.3L304.7 57.9Q305.1 58.8 305.6 59.7Q306.0 60.5 306.4 61.2Q306.8 61.9 307.1 62.3Q307.4 62.8 307.5 62.9V63.0ZM288.1 51.3Q289.3 51.3 290.6 51.3Q291.9 51.2 293.1 51.2Q294.3 51.2 295.5 51.2Q296.6 51.2 297.5 51.2L291.6 37.8L285.8 51.3Z M338.3 37.5 338.1 37.6Q336.4 36.1 334.1 35.2Q331.8 34.3 329.1 34.3Q326.4 34.3 324.2 35.1Q322.0 35.9 320.4 37.5Q318.9 39.1 318.0 41.4Q317.1 43.7 317.1 46.6Q317.1 49.8 317.9 52.6Q318.8 55.4 320.4 57.4Q322.1 59.4 324.6 60.6Q327.1 61.8 330.4 61.8Q331.6 61.8 332.8 61.5Q334.0 61.3 335.1 60.8Q336.2 60.3 337.2 59.6Q338.1 58.9 338.9 58.0L339.2 58.1L337.5 62.4Q335.9 63.0 334.0 63.3Q332.1 63.7 330.2 63.7Q326.3 63.7 323.1 62.5Q319.9 61.4 317.5 59.3Q315.2 57.3 313.9 54.4Q312.6 51.5 312.6 48.0Q312.6 46.0 313.1 44.1Q313.7 42.1 314.6 40.4Q315.6 38.6 317.1 37.2Q318.5 35.7 320.4 34.7Q322.2 33.6 324.5 33.0Q326.7 32.4 329.3 32.4Q333.4 32.4 336.8 33.6Z M346.9 62.9Q347.0 62.5 347.1 61.8Q347.2 61.2 347.3 60.2Q347.4 59.2 347.4 57.9Q347.5 56.6 347.5 54.8V41.1Q347.5 39.3 347.4 38.0Q347.4 36.7 347.3 35.7Q347.2 34.7 347.1 34.1Q347.0 33.4 346.9 33.0V32.9H351.9V33.0Q351.8 33.4 351.7 34.1Q351.6 34.7 351.5 35.7Q351.4 36.7 351.4 38.0Q351.3 39.3 351.3 41.1V45.8L363.6 35.8Q365.6 34.1 365.6 32.9H371.5V33.0Q370.3 33.3 369.0 34.1Q367.7 34.9 366.3 36.1L355.5 45.2L368.5 59.5Q369.3 60.4 369.9 60.9Q370.5 61.5 370.9 61.8Q371.4 62.2 371.7 62.4Q372.1 62.7 372.5 62.9V63.0H366.4Q366.3 62.8 366.1 62.5Q365.9 62.2 365.6 61.9Q365.4 61.6 365.1 61.3Q364.7 60.9 364.5 60.6L351.3 46.2V54.8Q351.3 56.6 351.4 57.9Q351.4 59.2 351.5 60.2Q351.6 61.2 351.7 61.8Q351.8 62.5 351.9 62.9V63.0H346.9Z"/>
  <path fill="#c9a35c" d="M399.7 61.2Q402.2 61.2 404.3 60.9Q406.4 60.7 407.9 60.5Q409.7 60.2 411.2 59.8L410.6 63.2Q410.3 63.1 409.8 63.1Q409.3 63.1 408.7 63.1Q408.1 63.1 407.4 63.1Q406.7 63.0 406.1 63.0Q405.5 63.0 405.0 63.0Q404.6 63.0 404.4 63.0H395.3V62.9Q395.4 62.5 395.5 61.8Q395.6 61.2 395.7 60.2Q395.8 59.2 395.9 57.9Q395.9 56.6 395.9 54.8V41.1Q395.9 39.3 395.9 38.0Q395.8 36.7 395.7 35.7Q395.6 34.7 395.5 34.1Q395.4 33.4 395.3 33.0V32.9H400.3V33.0Q400.2 33.4 400.1 34.1Q400.0 34.7 399.9 35.7Q399.8 36.7 399.8 38.0Q399.7 39.3 399.7 41.1Z M439.8 63.0V62.9Q439.8 62.8 439.8 62.6Q439.8 62.4 439.8 62.2Q439.8 61.6 439.7 60.8Q439.5 60.0 439.0 58.8L436.4 53.1Q435.3 53.1 433.3 53.1Q431.4 53.1 429.1 53.1Q427.4 53.1 425.9 53.1Q424.4 53.1 423.1 53.1L420.7 58.7Q420.4 59.4 420.0 60.4Q419.7 61.3 419.7 62.2Q419.7 62.5 419.7 62.7Q419.8 62.9 419.8 62.9V63.0H415.5V62.9Q415.9 62.5 416.5 61.5Q417.0 60.5 417.7 58.9L429.7 32.3H431.4L442.8 57.9Q443.2 58.8 443.6 59.7Q444.1 60.5 444.4 61.2Q444.8 61.9 445.1 62.3Q445.4 62.8 445.5 62.9V63.0ZM426.2 51.3Q427.4 51.3 428.7 51.3Q429.9 51.2 431.2 51.2Q432.4 51.2 433.5 51.2Q434.7 51.2 435.6 51.2L429.7 37.8L423.9 51.3Z M452.6 41.1Q452.6 39.3 452.5 38.0Q452.5 36.7 452.4 35.7Q452.3 34.7 452.2 34.1Q452.1 33.4 452.0 33.0V32.9Q452.4 32.9 452.9 32.9Q453.3 32.9 453.7 32.9Q454.2 32.9 454.8 32.9Q455.5 32.9 456.8 32.8Q458.1 32.6 460.1 32.6Q462.0 32.6 463.6 33.1Q465.2 33.6 466.4 34.6Q467.5 35.5 468.2 36.8Q468.9 38.2 468.9 39.9Q468.9 41.4 468.5 42.5Q468.1 43.6 467.4 44.5Q466.6 45.3 465.6 45.9Q464.6 46.5 463.4 46.8Q465.2 47.1 466.6 47.7Q468.1 48.4 469.2 49.4Q470.2 50.3 470.8 51.6Q471.4 52.9 471.4 54.5Q471.4 58.9 468.5 61.1Q465.5 63.3 459.7 63.3Q459.1 63.3 458.2 63.3Q457.4 63.2 456.5 63.2Q455.7 63.1 454.8 63.1Q454.0 63.0 453.4 63.0H452.0V62.9Q452.1 62.5 452.2 61.8Q452.3 61.2 452.4 60.2Q452.5 59.2 452.5 57.9Q452.6 56.6 452.6 54.8ZM460.3 48.1Q458.9 48.1 457.9 48.2Q456.9 48.3 456.4 48.4V54.8Q456.4 57.2 456.5 58.8Q456.6 60.4 456.7 61.4Q457.5 61.6 458.3 61.6Q459.1 61.7 459.6 61.7Q463.5 61.7 465.3 60.0Q467.2 58.2 467.2 54.6Q467.2 53.2 466.7 52.0Q466.3 50.8 465.4 49.9Q464.6 49.1 463.3 48.6Q462.0 48.1 460.3 48.1ZM456.4 46.5Q457.0 46.6 457.5 46.6Q457.9 46.6 458.4 46.6Q459.9 46.6 461.0 46.2Q462.2 45.8 463.0 45.0Q463.9 44.2 464.3 42.9Q464.8 41.7 464.8 40.1Q464.8 38.7 464.5 37.6Q464.1 36.5 463.5 35.7Q462.8 34.9 461.8 34.5Q460.9 34.1 459.6 34.1Q458.8 34.1 458.2 34.1Q457.6 34.2 457.2 34.3Q456.7 34.4 456.4 34.5Z"/>
</svg>
